<svg width="30" height="30" viewBox="0 0 20 20" xmlns="http://www.w3.org/2000/svg"><path d="m18.9 5.8v8.4c0 0.3-0.1 0.6-0.2 0.8-0.2 0.2-0.4 0.5-0.6 0.6l-7.3 4.2c-0.5 0.3-1.1 0.3-1.6 0l-7.3-4.2c-0.2-0.1-0.4-0.4-0.6-0.6-0.1-0.2-0.2-0.5-0.2-0.8v-8.4c0-0.5 0.4-1.1 0.8-1.4l7.3-4.2c0.5-0.3 1.1-0.3 1.6 0l7.3 4.2c0.2 0.1 0.4 0.4 0.6 0.6 0.1 0.2 0.2 0.5 0.2 0.8zm-7.4 9.9q0.8-0.2 1.5-0.6 0.6-0.4 1.2-0.9 0.5-0.6 0.9-1.2l-2.5-1.5q-0.2 0.3-0.5 0.6-0.3 0.3-0.6 0.5-0.4 0.2-0.7 0.3-0.4 0.1-0.8 0.1-0.6 0-1.1-0.3-0.6-0.2-1-0.6-0.4-0.4-0.6-1-0.3-0.5-0.3-1.1 0-0.6 0.3-1.1 0.2-0.6 0.6-1 0.4-0.4 1-0.6 0.5-0.3 1.1-0.3 0.4 0 0.8 0.1 0.3 0.1 0.7 0.3 0.3 0.2 0.6 0.5 0.3 0.3 0.5 0.6l2.5-1.5q-0.4-0.6-0.9-1.2-0.6-0.5-1.2-0.9-0.7-0.4-1.5-0.6-0.7-0.2-1.5-0.2c-3.3 0-5.9 2.6-5.9 5.9 0 3.3 2.6 5.9 5.9 5.9q0.8 0 1.5-0.2zm1.6-6.1h1v0.8h-1v0.5h1v0.9h0.4v-0.9h1v0.9h0.4v-0.9h0.9v-0.5h-0.9v-0.8h0.9v-0.5h-0.9v-0.9h-0.4v0.9h-1v-0.9h-0.4v0.9h-1zm1.4 0.9v-0.9h1v0.9z"></path></svg>